<?xml version="1.0" standalone="no"?>
<!DOCTYPE svg PUBLIC "-//W3C//DTD SVG 20010904//EN"
 "http://www.w3.org/TR/2001/REC-SVG-20010904/DTD/svg10.dtd">
<svg version="1.0" xmlns="http://www.w3.org/2000/svg"
 width="256.000000pt" height="256.000000pt" viewBox="0 0 256.000000 256.000000"
 preserveAspectRatio="xMidYMid meet">

<g transform="translate(0.000000,256.000000) scale(0.100000,-0.100000)"
fill="#000000" stroke="none">
<path d="M112 2529 c-29 -15 -51 -36 -70 -68 l-27 -46 0 -1135 0 -1135 27 -47
c19 -32 41 -52 71 -67 43 -21 47 -21 1167 -21 1120 0 1124 0 1167 21 30 15 52
35 71 67 l27 47 0 1135 0 1135 -27 47 c-19 32 -41 52 -71 67 -43 21 -47 21
-1168 21 l-1124 0 -43 -21z m589 -430 c141 -71 139 -278 -4 -344 -119 -56
-266 -9 -306 98 -29 75 1 186 62 229 68 48 172 56 248 17z m1110 -509 c128
-24 237 -108 292 -224 51 -106 57 -172 57 -576 l0 -370 -189 0 -190 0 -3 358
-3 357 -28 57 c-37 76 -79 102 -161 102 -67 -1 -106 -17 -147 -61 -54 -58 -54
-53 -59 -443 l-5 -365 -192 -3 -193 -2 3 575 2 575 193 0 192 0 0 -76 0 -77
28 36 c95 118 239 168 403 137z m-1031 -595 l0 -575 -190 0 -190 0 0 575 0
575 190 0 190 0 0 -575z"/>
</g>
</svg>
